<svg xmlns="http://www.w3.org/2000/svg" viewBox="0 0 64 64">
  <rect width="64" height="64" rx="10" fill="#ffffff"/>
  <g stroke="#f5b800" stroke-width="2.5" stroke-linecap="round" fill="none">
    <line x1="32" y1="6" x2="32" y2="12"/>
    <line x1="22" y1="9" x2="26" y2="15"/>
    <line x1="42" y1="9" x2="38" y2="15"/>
  </g>
  <g fill="#1e40af">
    <path d="M27 16 Q32 14 37 16 L38 50 Q39 56 35 58 Q32 60 30 58 Q26 56 26 50 Z"/>
    <path d="M14 32 Q24 30 32 30 Q40 30 50 32 Q52 36 50 38 Q40 40 32 40 Q24 40 14 38 Q12 36 14 32 Z"/>
  </g>
</svg>
