<svg xmlns="http://www.w3.org/2000/svg" viewBox="0 0 200 200" role="img" aria-label="21st CCWC mark">
  <title>21st CCWC</title>
  <g stroke="#f5b800" stroke-width="6" stroke-linecap="round" fill="none">
    <line x1="100" y1="10" x2="100" y2="34"/>
    <line x1="68"  y1="22" x2="80"  y2="42"/>
    <line x1="132" y1="22" x2="120" y2="42"/>
    <line x1="48"  y1="50" x2="64"  y2="62"/>
    <line x1="152" y1="50" x2="136" y2="62"/>
  </g>
  <g fill="#1e40af">
    <path d="M86 46
             Q100 40 114 48
             L118 152
             Q120 178 110 186
             Q100 192 96 182
             Q86 172 84 152 Z"/>
    <path d="M50 100
             Q78 92 100 94
             Q126 96 150 102
             Q156 110 150 118
             Q126 124 100 122
             Q78 124 54 118
             Q46 110 50 100 Z"/>
  </g>
</svg>
